<?xml version="1.0" encoding="utf-8"?>
<svg width="1440" height="449" viewBox="0 0 1440 449" fill="none" xmlns="http://www.w3.org/2000/svg" preserveAspectRatio="none">
  <path d="M0,240 C150,200 300,150 450,160 C600,170 750,240 900,240 C1050,240 1200,170 1290,140 L1440,90 L1440,449 L0,449 Z" 
        fill="currentColor" 
        fill-opacity="0.1"
        stroke="currentColor" 
        stroke-width="1" 
        stroke-opacity="0.2"
        vector-effect="non-scaling-stroke">
    <animate attributeName="d" 
             dur="30s" 
             repeatCount="indefinite" 
             values="M0,240 C150,200 300,150 450,160 C600,170 750,240 900,240 C1050,240 1200,170 1290,140 L1440,90 L1440,449 L0,449 Z;
                     M0,220 C150,260 300,280 450,260 C600,240 750,190 900,180 C1050,170 1200,200 1290,220 L1440,250 L1440,449 L0,449 Z;
                     M0,240 C150,200 300,150 450,160 C600,170 750,240 900,240 C1050,240 1200,170 1290,140 L1440,90 L1440,449 L0,449 Z" 
             keyTimes="0; 0.5; 1" 
             calcMode="spline" 
             keySplines="0.4 0 0.2 1; 0.4 0 0.2 1" />
  </path>
  
  <path d="M0,220 C100,200 200,180 300,190 C400,200 500,240 600,240 C700,240 800,210 900,200 C1000,190 1100,200 1200,220 L1440,270 L1440,300 L0,300 Z" 
        fill="currentColor" 
        fill-opacity="0.05"
        vector-effect="non-scaling-stroke">
    <animate attributeName="d" 
             dur="25s" 
             begin="-5s"
             repeatCount="indefinite" 
             values="M0,220 C100,200 200,180 300,190 C400,200 500,240 600,240 C700,240 800,210 900,200 C1000,190 1100,200 1200,220 L1440,270 L1440,300 L0,300 Z;
                     M0,240 C100,220 200,200 300,210 C400,220 500,260 600,260 C700,260 800,230 900,220 C1000,210 1100,220 1200,240 L1440,290 L1440,300 L0,300 Z;
                     M0,220 C100,200 200,180 300,190 C400,200 500,240 600,240 C700,240 800,210 900,200 C1000,190 1100,200 1200,220 L1440,270 L1440,300 L0,300 Z"
             keyTimes="0; 0.5; 1" 
             calcMode="spline" 
             keySplines="0.4 0 0.2 1; 0.4 0 0.2 1" />
  </path>
</svg>
